<?xml version="1.0" encoding="utf-8"?>
<!-- Generator: Adobe Illustrator 26.0.2, SVG Export Plug-In . SVG Version: 6.00 Build 0)  -->
<svg version="1.1" id="Your_Designs_Here" xmlns="http://www.w3.org/2000/svg" xmlns:xlink="http://www.w3.org/1999/xlink" x="0px"
	 y="0px" viewBox="0 0 199.34 158.68" style="enable-background:new 0 0 199.34 158.68;" xml:space="preserve">
<style type="text/css">
	.st0{fill:#272828;}
	.st1{fill:#F4F4F5;}
	.st2{fill:#8CD2D2;}
	.st3{opacity:0.75;fill:#FDF7B2;}
	.st4{opacity:0.59;fill:#D5B4D6;}
	.st5{fill:#FFFFFF;}
	.st6{fill:#5C5C5C;}
	.st7{fill:#434343;}
</style>
<polygon class="st4" points="175.51,117.68 158.67,117.68 175.96,147.62 192.79,147.62 "/>
<g>
	<polygon class="st2" points="25.29,117.68 8,147.62 26.62,147.62 43.9,117.68 	"/>
	<polygon class="st2" points="91.98,34.41 82.67,18.29 45.08,83.4 63.69,83.4 	"/>
	<polygon class="st3" points="109.7,32.86 101.29,18.29 91.98,34.41 100.4,48.99 	"/>
	<polygon class="st2" points="43.9,117.68 26.62,147.62 43.45,147.62 60.74,117.68 	"/>
	<polygon class="st3" points="43.9,117.68 26.62,147.62 43.45,147.62 60.74,117.68 	"/>
	<polygon class="st2" points="80.53,83.4 100.4,48.99 91.98,34.41 63.69,83.4 	"/>
	<polygon class="st3" points="80.53,83.4 100.4,48.99 91.98,34.41 63.69,83.4 	"/>
	<polygon class="st4" points="155.72,83.4 118.12,18.29 109.7,32.86 138.88,83.4 	"/>
	<polygon class="st3" points="140.06,117.68 157.34,147.62 175.96,147.62 158.67,117.68 	"/>
	<polygon class="st4" points="140.06,117.68 157.34,147.62 175.96,147.62 158.67,117.68 	"/>
	<polygon class="st3" points="120.27,83.4 138.88,83.4 109.7,32.86 100.4,48.99 	"/>
	<polygon class="st4" points="120.27,83.4 138.88,83.4 109.7,32.86 100.4,48.99 	"/>
	<polygon class="st2" points="100.4,48.99 80.53,83.4 120.27,83.4 	"/>
	<polygon class="st3" points="100.4,48.99 80.53,83.4 120.27,83.4 	"/>
	<polygon class="st4" points="100.4,48.99 80.53,83.4 120.27,83.4 	"/>
	<polygon class="st2" points="60.74,117.68 43.45,147.62 157.34,147.62 140.06,117.68 	"/>
	<polygon class="st3" points="60.74,117.68 43.45,147.62 157.34,147.62 140.06,117.68 	"/>
	<polygon class="st4" points="60.74,117.68 43.45,147.62 157.34,147.62 140.06,117.68 	"/>
	<g>
		<path class="st7" d="M44.22,94.36h1.42l3.85,6.36h-0.37L53,94.36h1.4l-4.5,7.29v5.06h-1.19v-5.06L44.22,94.36z"/>
		<path class="st7" d="M57.87,94.36v11.34h5.73v1.01h-6.89V94.36H57.87z"/>
		<path class="st7" d="M65.78,106.71V94.36h7.44v0.99h-6.28v4.62h5.92v0.99h-5.92v4.74h6.28v1.01H65.78z"/>
		<path class="st7" d="M81.39,94.36h3.42c1.24,0,2.31,0.25,3.21,0.76s1.6,1.23,2.1,2.15c0.49,0.92,0.74,2.01,0.74,3.25
			c0,1.23-0.25,2.31-0.74,3.24c-0.49,0.93-1.19,1.65-2.1,2.17c-0.9,0.52-1.98,0.78-3.21,0.78h-3.42V94.36z M82.55,95.36v10.37h2.26
			c1,0,1.86-0.23,2.58-0.68c0.72-0.45,1.27-1.07,1.67-1.85c0.39-0.78,0.58-1.67,0.58-2.67c0-1-0.2-1.89-0.58-2.67
			c-0.39-0.78-0.95-1.39-1.67-1.83c-0.72-0.45-1.58-0.67-2.58-0.67H82.55z"/>
		<path class="st7" d="M94.31,106.71V94.36h7.44v0.99h-6.28v4.62h5.92v0.99h-5.92v4.74h6.28v1.01H94.31z"/>
		<path class="st7" d="M109.1,106.93c-0.81,0-1.55-0.15-2.22-0.44c-0.67-0.3-1.21-0.73-1.62-1.3c-0.41-0.57-0.61-1.26-0.61-2.08
			h1.12c0,0.63,0.15,1.14,0.46,1.55c0.31,0.41,0.71,0.71,1.21,0.9c0.5,0.2,1.05,0.29,1.64,0.29c0.67,0,1.25-0.11,1.73-0.33
			c0.48-0.22,0.85-0.51,1.1-0.88c0.26-0.36,0.38-0.74,0.38-1.15c0-0.59-0.18-1.07-0.53-1.44c-0.36-0.37-0.87-0.66-1.54-0.86
			l-2.05-0.66c-1.06-0.37-1.86-0.78-2.39-1.24c-0.53-0.46-0.8-1.11-0.8-1.95c0-0.93,0.35-1.7,1.06-2.29
			c0.71-0.59,1.72-0.89,3.05-0.89c1.19,0,2.13,0.27,2.81,0.82c0.68,0.55,1.08,1.26,1.19,2.15h-1.15c-0.11-0.61-0.4-1.08-0.88-1.42
			s-1.13-0.5-1.98-0.5c-0.91,0-1.61,0.21-2.1,0.62s-0.75,0.93-0.75,1.57c0,0.51,0.16,0.92,0.47,1.21s0.81,0.56,1.48,0.79l2.48,0.8
			c0.87,0.27,1.56,0.66,2.1,1.18c0.53,0.52,0.79,1.22,0.79,2.08c0,0.61-0.17,1.17-0.51,1.7c-0.34,0.53-0.84,0.95-1.5,1.28
			C110.89,106.76,110.07,106.93,109.1,106.93z"/>
		<path class="st7" d="M117.09,106.71V94.36h1.16v12.35H117.09z"/>
		<path class="st7" d="M126.71,106.93c-0.97,0-1.85-0.25-2.66-0.75c-0.81-0.5-1.45-1.21-1.93-2.14c-0.48-0.93-0.71-2.04-0.71-3.33
			c0-1.1,0.16-2.06,0.47-2.88c0.31-0.82,0.74-1.5,1.29-2.04c0.54-0.54,1.16-0.95,1.85-1.22c0.69-0.27,1.42-0.41,2.17-0.41
			c0.87,0,1.65,0.17,2.34,0.51c0.69,0.34,1.32,0.88,1.89,1.62l-1.01,0.5c-0.51-0.55-1.03-0.96-1.57-1.21
			c-0.54-0.25-1.1-0.38-1.68-0.38c-0.81,0-1.56,0.22-2.25,0.66c-0.69,0.44-1.24,1.07-1.66,1.89c-0.42,0.82-0.62,1.8-0.62,2.94
			c0,0.99,0.17,1.87,0.5,2.64c0.33,0.77,0.8,1.38,1.42,1.83c0.62,0.45,1.35,0.67,2.22,0.67c0.63,0,1.2-0.15,1.71-0.44
			c0.5-0.29,0.9-0.75,1.19-1.36s0.44-1.4,0.44-2.36h0.46c0,1.06-0.13,1.98-0.38,2.77c-0.25,0.79-0.66,1.39-1.22,1.83
			C128.38,106.71,127.63,106.93,126.71,106.93z M130.34,106.71l-0.25-3.01v-2.03l-3.28-0.12v-0.84h4.43v6H130.34z"/>
		<path class="st7" d="M134.99,94.36h1.5l6.62,10.88h-0.12V94.36h1.16v12.35h-1.41l-6.76-11.11h0.17v11.11h-1.16V94.36z"/>
		<path class="st7" d="M152.12,106.93c-0.81,0-1.55-0.15-2.22-0.44c-0.67-0.3-1.21-0.73-1.62-1.3c-0.41-0.57-0.61-1.26-0.61-2.08
			h1.12c0,0.63,0.15,1.14,0.46,1.55c0.31,0.41,0.71,0.71,1.21,0.9c0.5,0.2,1.05,0.29,1.64,0.29c0.67,0,1.25-0.11,1.73-0.33
			c0.48-0.22,0.85-0.51,1.1-0.88c0.26-0.36,0.38-0.74,0.38-1.15c0-0.59-0.18-1.07-0.53-1.44c-0.36-0.37-0.87-0.66-1.54-0.86
			l-2.05-0.66c-1.06-0.37-1.86-0.78-2.39-1.24c-0.53-0.46-0.8-1.11-0.8-1.95c0-0.93,0.35-1.7,1.06-2.29
			c0.71-0.59,1.72-0.89,3.05-0.89c1.19,0,2.13,0.27,2.81,0.82c0.68,0.55,1.08,1.26,1.19,2.15h-1.15c-0.11-0.61-0.4-1.08-0.88-1.42
			s-1.13-0.5-1.98-0.5c-0.91,0-1.61,0.21-2.1,0.62s-0.75,0.93-0.75,1.57c0,0.51,0.16,0.92,0.47,1.21s0.81,0.56,1.48,0.79l2.48,0.8
			c0.87,0.27,1.56,0.66,2.1,1.18c0.53,0.52,0.79,1.22,0.79,2.08c0,0.61-0.17,1.17-0.51,1.7c-0.34,0.53-0.84,0.95-1.5,1.28
			C153.91,106.76,153.09,106.93,152.12,106.93z"/>
	</g>
</g>
</svg>
